<svg xmlns="http://www.w3.org/2000/svg" xmlns:xlink="http://www.w3.org/1999/xlink" width="363.53" height="162.838" viewBox="0 0 363.53 162.838">
  <defs>
    <filter id="Path_6701" x="0" y="0" width="363.53" height="162.838" filterUnits="userSpaceOnUse">
      <feOffset dy="3" input="SourceAlpha"/>
      <feGaussianBlur stdDeviation="3" result="blur"/>
      <feFlood flood-opacity="0.161"/>
      <feComposite operator="in" in2="blur"/>
      <feComposite in="SourceGraphic"/>
    </filter>
  </defs>
  <g transform="matrix(1, 0, 0, 1, 0, 0)" filter="url(#Path_6701)">
    <path id="Path_6701-2" data-name="Path 6701" d="M45.326.655c-.655,2.358,1.048,6.419,3.537,6.419,1.834,0,6.026-1.441,6.026-3.537,0-.524.917-1.572.917-3.013,0-2.1-.786-4.585-.786-6.288,0-3.668.917-7.336,1.31-11.135.655-5.9.524-12.183,2.1-17.816A52.187,52.187,0,0,0,60-43.754c.131-2.489,1.441-4.192,2.1-6.681.524-2.227.393-4.585,1.048-6.812C66.417-68.12,65.5-78.076,66.548-88.294c0-1.965-1.441-5.371-3.668-5.371-4.192,0-5.109,10.873-5.764,14.8-.524,3.144-.917,6.288-1.31,9.432-.262,2.751.524,4.716-2.489,4.716-5.633,0-12.052-.262-16.768,3.013-1.179.786-4.978,1.441-5.633,2.1-3.013,3.406-7.467,5.764-10.742,9.17-1.572,1.7-1.965,4.061-3.668,5.24a11.162,11.162,0,0,0-3.93,5.24c-1.7,4.585-4.978,8.384-6.419,13.493C4.978-22.4,2.751-17.423,2.751-12.838,2.751-9.17,8.384-1.7,14.017-1.7a17.744,17.744,0,0,0,5.24-1.048c1.834-.524,6.419-.917,7.467-2.1,1.572-1.834,4.192-2.62,6.288-3.8,2.1-1.048,3.406-3.406,5.5-4.978a61.67,61.67,0,0,0,6.681-5.24c1.31-1.834,1.965-4.323,4.454-4.978-.524,6.288-2.227,11.79-2.227,17.947C47.422-3.144,45.85-1.441,45.326.655ZM34.453-52.793c4.454-3.668,8.122-5.109,14.41-5.109a17.111,17.111,0,0,1,5.109.655c-1.7,9.432-1.31,19.781-7.86,27.51-1.834,2.227-3.668,5.9-5.895,7.2-2.489,1.572-4.454,3.93-6.943,5.371-4.192,2.489-9.17,8.122-17.161,8.122a5.3,5.3,0,0,1-5.5-4.192c-.524-2.227,1.31-5.895,1.31-8.908,0-5.371,5.633-9.563,6.157-14.8.131-1.441,2.62-3.668,3.8-5.24C25.021-46.636,30.261-49.125,34.453-52.793ZM74.408-2.62a11.844,11.844,0,0,0,11,6.419c7.205,0,15.458-4.716,20.436-8.908,1.441-1.179,2.751-2.882,4.454-3.8s1.7-2.1,2.751-3.537c1.179-1.572,2.62-1.572,3.406-3.275a20.288,20.288,0,0,1,2.751-4.585c1.31-1.834,7.205-8.908,7.205-13.231a2.846,2.846,0,0,0-2.882-3.013c-2.882-.131-5.109,5.109-6.681,6.55-2.1,1.834-2.489,5.9-4.585,7.991C104.8-14.672,96.285-4.192,85.019-3.144,80.565-4.585,79.255-9.3,79.255-14.672c0-6.157,1.7-13.1,2.751-16.768,1.31-4.847,8.253-4.061,13.755-5.9,8.646-2.882,26.462-2.882,26.462-10.611,0-7.991-6.812-20.567-16.113-20.567C93.8-68.644,86.853-56.2,81.613-47.946c-1.572,2.358-3.668,7.6-4.847,8.253-.786.393-1.7.655-1.7,1.834,0,1.572.917,2.358.917,3.537a2.439,2.439,0,0,1-.524,1.441c-1.834,3.406-2.62,13.1-2.62,19.126A38.774,38.774,0,0,0,74.408-2.62Zm36.811-56.985c1.965,1.7,4.061,4.716,4.061,7.6,0,6.943-16.9,7.6-27.641,8.515,1.572-4.454,3.8-9.563,7.6-12.576,1.834-1.572,3.275-4.192,6.026-4.585.917,0,1.31-.917,2.1-1.048A9.956,9.956,0,0,1,111.219-59.605Zm71.788,4.454c0-6.419-5.5-8.122-11.266-8.122-5.24,0-9.432,2.489-14.279,2.489-1.179,0-3.93,2.62-5.109,3.275-4.978,3.013-12.576,9.039-12.576,17.161,0,9.956,10.611,10.087,16.506,13.362,2.358,1.31,6.157,1.048,9.039,2.62,1.572.917,1.441,1.179,2.62,1.179,5.5,0,8.515,3.93,8.515,5.371,0,6.943-19.65,13.231-30.13,13.231-7.074,0-9.432-7.205-12.314-7.205-1.834.393-2.489,2.1-2.489,3.93,0,8.908,7.991,9.432,14.148,9.432,12.183,0,26.986-3.144,35.632-12.838,2.1-2.358,2.62-3.93,2.62-6.419,0-5.633-2.751-7.2-6.157-9.3-1.7-1.048-5.5-2.1-7.2-2.882a33.815,33.815,0,0,0-6.026-2.358l-6.681-1.7c-4.192-1.048-8.908-2.1-10.087-6.812a12.2,12.2,0,0,1,6.419-9.563c1.441-.655,2.227-2.751,3.668-3.013a43.126,43.126,0,0,1,15.72-3.144c2.227.393,3.144,2.489,5.633,2.489C180.518-53.972,182.745-54.234,183.007-55.151Zm26.986-6.943c-.131-1.7-2.882-2.489-4.585-2.489-7.2,0-4.061,15.982-5.764,26.724-1.7,10.48-3.013,18.34-3.013,30.654,0,3.93.524,6.812,3.144,6.812,6.419,0,5.764-4.454,5.764-10.742,0-2.489-.262-4.847-.262-7.2,0-9.694,2.227-19.519,2.227-29.868C207.5-53.055,209.993-57.771,209.993-62.094Zm1.834-20.829c0-1.179-.917-2.227-3.8-2.227-3.8,0-7.6,1.31-7.6,4.716a3.751,3.751,0,0,0,3.8,3.93,6.263,6.263,0,0,0,3.537-1.048C210.386-79.517,211.827-78.993,211.827-82.923Zm70.74,29.082c1.7,0,2.62-.655,2.62-2.62,0-5.109-9.956-8.515-14.41-8.515-2.882,0-5.633.786-8.384,1.048-3.144.393-6.681,2.882-9.694,4.847s-5.9,2.882-8.122,4.978a55.549,55.549,0,0,1-4.061,3.93c-9.694,8.122-12.314,17.161-16.768,26.986-1.965,4.454-3.668,8.515-3.8,13.493.524,3.144,4.454,9.563,11.79,9.563.786,0,7.336-3.275,11.921-4.323,2.882-.655,6.681-3.406,9.039-5.371,1.441-1.179,2.751-2.489,4.585-3.93,2.62-2.1,3.93-5.371,6.288-7.729,1.834-1.834,3.013-5.24,5.371-6.419a110.572,110.572,0,0,1-3.406,21.746c-1.31,4.978-2.882,9.039-2.882,14.148,0,2.489-1.834,4.323-2.62,6.55-.917,2.358-.655,5.764-1.965,7.6-1.834,2.751-2.489,6.419-4.454,8.515-6.943,7.205-10.218,11.921-18.34,11.921-9.694,0-15.327-3.93-20.174-9.17a28.934,28.934,0,0,1-4.716-6.026c-1.441-2.489-2.751-3.406-3.537-3.406-.917,0-1.31,1.048-1.31,2.358a5.789,5.789,0,0,0,.655,2.882,47.24,47.24,0,0,0,6.288,8.777c1.31,1.572,2.489,1.834,3.93,3.668,1.048,1.31,2.751,2.1,4.061,3.8,2.62,3.537,11.266,4.716,17.161,4.716,13.624,0,22.925-14.148,26.462-23.842,1.965-5.633,4.978-10.742,5.371-16.9.131-1.965,1.179-3.275,1.7-5.109.393-1.572.393-3.275.655-4.847.655-5.895,2.1-11.659,3.013-17.816.262-1.31.786-1.572.786-2.62,0-1.441-.131-3.013-.131-4.585a76.288,76.288,0,0,0,.655-7.86v-3.144c0-4.061.655-6.681.655-11.79,0-3.144-.655-7.205-4.061-7.205-3.8,0-3.8,7.991-4.061,10.349-.393,3.406-6.026,17.292-7.6,17.292-1.31,0-3.93,5.633-6.157,7.6-6.288,5.633-15.982,12.314-21.746,12.314-1.572,0-4.978-.262-4.978-3.8,0-4.585,3.8-12.969,5.24-15.327,1.834-3.144,2.489-8.122,5.109-10.611,4.454-4.061,7.86-9.17,12.838-12.838,6.419-2.882,11.266-7.205,19.257-7.205C276.541-57.771,278.9-53.841,282.567-53.841Zm63.666,11.528C346.233-52.531,343.22-60,336.146-60c-7.2,0-12.445,6.55-17.816,10.611-5.5,4.192-8.122,13.624-12.969,15.2,0-6.943.131-6.157.131-13.231,0-4.192-.917-10.349-3.275-11.4-1.7-.786-4.978,2.489-4.978,4.585,0,1.441.524,3.144.655,4.454a56.374,56.374,0,0,1,.524,8.122c0,5.633-.131,8.908,0,11.4.131,3.275-.131,4.978-.131,7.991,0,4.978-.131,10.087-1.834,14.8a17.7,17.7,0,0,0-1.441,5.895c0,1.965.655,3.537,2.882,3.537a1.982,1.982,0,0,0,1.834-.917c1.7-2.489,4.978,1.834,4.978-6.55,0-3.144.917-4.978,1.179-7.6.786-8.122,4.978-17.423,10.087-24.235,1.7-2.358,2.489-4.323,4.978-5.633,6.812-3.8,6.943-9.432,14.279-9.432,4.716,0,4.061,13.886,4.061,15.458,0,3.668-.393,7.336-.393,11.135v2.62c0,3.668-1.7,6.157-1.7,9.563,0,2.62-1.179,4.585-1.179,7.729,0,1.834.917,3.275,2.882,3.275,3.013,0,6.55-2.227,6.55-4.192,0-1.7.131-3.406.131-5.109,0-3.537.655-3.93.655-7.2,0-.917-.131-1.7-.131-2.62,0-1.834,1.179-3.144,1.179-4.978,0-1.31-.524-2.751-.655-4.061C346.364-34.584,346.495-38.514,346.233-42.313Z" transform="translate(6.75 100.16)" fill="#272727" stroke="#272727" stroke-width="1"/>
  </g>
</svg>
